<svg version="1" xmlns="http://www.w3.org/2000/svg" width="682.667" height="682.667" viewBox="0 0 512.000000 512.000000"><path d="M360.2 130.7c-1.9.9-4.1 3.1-5 5l-1.6 3.3h-14.2c-31.5 0-55.5 6.8-69.5 19.8-7.7 7.1-10.9 13.4-10.9 21.5 0 12.4 9.4 21.8 20.5 20.5 1.6-.2 3-.8 3.2-1.4.2-.6-1.9-4.1-4.6-7.8-2.8-3.8-5.3-8.3-5.7-10-2.2-11.9 10.4-23.6 33.1-30.9 17.1-5.5 20.3-6.1 34.8-6 7.6.1 14.1.3 14.3.6 1.9 1.9-10.4 28.4-24.7 53.2-50.1 87.1-91 135.7-131.9 156.9-32.3 16.7-64.1 16.6-79.3-.4-5.6-6.2-7.7-12.2-7.7-21.5 0-24.7 20.1-57 44.9-72.3 11.5-7 19.5-9.7 29.6-9.7 16.9 0 27.4 9.4 29.1 26.2.8 7.6-1.5 16.6-6.6 26-2.2 4-4 7.9-4 8.8 0 5.5 13.2-5.1 19.4-15.7 3.2-5.4 6-17.9 5.1-22.8-2.8-15.9-12.8-26.1-29.2-29.5-8.8-1.9-15.6-1.9-25.1.1-32.6 6.6-68.9 39.3-76.7 69-2.3 8.7-2.1 23.8.4 30.3 5.7 15.2 16.2 24.5 32.4 28.8 9.1 2.5 29.4 2.2 41.4-.5 48-10.9 103-55.9 143.8-117.7 25.2-38.1 50.6-84.8 58-106.2.3-.9 1.7-.8 5.6.2 11.8 3.1 23.9 11.4 22.5 15.2-.8 1.9 1.1 5.3 2.9 5.3 4.2 0 4.5-11.2.4-15.7-3.4-3.6-13.1-8-22.2-10l-7.7-1.6-.7-4.1c-1.2-7.7-6.9-10.5-14.1-6.9z"/></svg>